# xmcd
# 
# Track frame offsets:
#     150
#     15045
#     27880
#     51487
# 
# Disc length: 880
# 
# Revision: 0
# Processed by: cddbd v1.5.2PL0 Copyright (c) Steve Scherf et al.
# Submitted via: fre:ac v1.0.17
# 
DISCID=23036e04
DTITLE=Clean sheets - Exposures
DYEAR=0
DGENRE=
TTITLE0=On the poor girls mind
TTITLE1=Exposures
TTITLE2=Present times
TTITLE3=Dont walk away
EXTD=
EXTT0=
EXTT1=
EXTT2=
EXTT3=
PLAYORDER=
